{"title":"Support Your Local Sheriff (1969) 720p AC3 HDTV","uid":9239684,"size":1792899760,"categoryP":"video","categoryS":"hd___movies","magnet":"?xt=urn:btih:176b065b57fa3672c97ad6dfe2a316a85fa12daf&amp;dn=Support+Your+Local+Sheriff+%281969%29+720p+AC3+HDTV&amp;tr=udp%3A%2F%2Ftracker.openbittorrent.com%3A80&amp;tr=udp%3A%2F%2Fopen.demonii.com%3A1337&amp;tr=udp%3A%2F%2Ftracker.coppersurfer.tk%3A6969&amp;tr=udp%3A%2F%2Fexodus.desync.com%3A6969","seeders":4,"leechers":1,"uploader":"nabsltd","files":2,"time":1385238069,"description":"This is my own rip.\n\nThere is a small logo for 30 seconds every 20 minutes.\n\nGeneral\nUnique ID                        : 208427512417806247359593869182538318832 (0x9CCDADC1E6E8C103857EBB465BDB83F0)\nFormat                           : Matroska\nFormat version                   : Version 4 / Version 2\nFile size                        : 1.65 GiB\nDuration                         : 1h 32mn\nOverall bit rate mode            : Variable\nOverall bit rate                 : 2 555 Kbps\nEncoded date                     : UTC 2013-11-23 16:23:30\nWriting application              : mkvmerge v6.5.0 ('Isn't she lovely') built on Oct 20 2013 12:50:05\nWriting library                  : libebml v1.3.0 + libmatroska v1.4.1\n\nVideo\nID                               : 1\nFormat                           : AVC\nFormat/Info                      : Advanced Video Codec\nFormat profile                   : &lt;a class=&quot;__cf_email__&quot; href=&quot;/cdn-cgi/l/email-protection&quot; data-cfemail=&quot;cc84a5aba48c80f8e2fd&quot;&gt;[email&amp;#160;protected]&lt;/a&gt;&lt;script cf-hash='f9e31' type=&quot;text/javascript&quot;&gt;\n/* &lt;![CDATA[ */!function(){try{var t=&quot;currentScript&quot;in document?document.currentScript:function(){for(var t=document.getElementsByTagName(&quot;script&quot;),e=t.length;e--;)if(t[e].getAttribute(&quot;cf-hash&quot;))return t[e]}();if(t&amp;&amp;t.previousSibling){var e,r,n,i,c=t.previousSibling,a=c.getAttribute(&quot;data-cfemail&quot;);if(a){for(e=&quot;&quot;,r=parseInt(a.substr(0,2),16),n=2;a.length-n;n+=2)i=parseInt(a.substr(n,2),16)^r,e+=String.fromCharCode(i);e=document.createTextNode(e),c.parentNode.replaceChild(e,c)}}}catch(u){}}();/* ]]&gt; */&lt;/script&gt;\nFormat settings, CABAC           : Yes\nFormat settings, ReFrames        : 7 frames\nCodec ID                         : V_MPEG4/ISO/AVC\nDuration                         : 1h 32mn\nBit rate mode                    : Variable\nBit rate                         : 2 121 Kbps\nMaximum bit rate                 : 7.85 Mbps\nWidth                            : 1 280 pixels\nHeight                           : 688 pixels\nDisplay aspect ratio             : 1.860\nFrame rate                       : 23.976 fps\nColor space                      : YUV\nChroma subsampling               : 4:2:0\nBit depth                        : 8 bits\nScan type                        : Progressive\nBits/(Pixel*Frame)               : 0.100\nStream size                      : 1.37 GiB (83%)\nWriting library                  : x264 core 135 r2345 f0c1c53\nLanguage                         : English\nDefault                          : Yes\nForced                           : No\n\nAudio\nID                               : 2\nFormat                           : AC-3\nFormat/Info                      : Audio Coding 3\nFormat profile                   : Dolby Digital\nMode extension                   : CM (complete main)\nCodec ID                         : A_AC3\nDuration                         : 1h 32mn\nBit rate mode                    : Constant\nBit rate                         : 384 Kbps\nChannel(s)                       : 2 channels\nChannel positions                : Front: L R\nSampling rate                    : 48.0 KHz\nBit depth                        : 16 bits\nCompression mode                 : Lossy\nStream size                      : 255 MiB (15%)\nLanguage                         : English\nDefault                          : Yes\nForced                           : No\n\nMenu\n00:00:00.000                     : Gold Diggers/Title\n00:07:47.133                     : Self-Defense\n00:13:06.953                     : New Badge in Town\n00:21:20.237                     : Town Brawl\n00:26:08.317                     : The Mayors Daughter\n00:31:44.194                     : Arresting Joe Danby\n00:42:05.481                     : Prudy's Bad Luck\n00:46:57.648                     : Meed the Danbys\n00:54:15.441                     : &quot;Dumb Little Old Girl&quot;\n01:03:18.586                     : Dead Troublemakers\n01:07:59.867                     : A Busted Bust\n01:11:25.615                     : Mature Cowardice\n01:15:54.341                     : A Civic Duty\n01:20:29.116                     : Sheriff's Bluff\n01:28:09.951                     : A Popular Man\n01:31:20.642                     : End Credits\n","torrent":{"xt":"urn:btih:176b065b57fa3672c97ad6dfe2a316a85fa12daf","amp;dn":"Support+Your+Local+Sheriff+%281969%29+720p+AC3+HDTV","amp;tr":["udp%3A%2F%2Ftracker.openbittorrent.com%3A80","udp%3A%2F%2Fopen.demonii.com%3A1337","udp%3A%2F%2Ftracker.coppersurfer.tk%3A6969","udp%3A%2F%2Fexodus.desync.com%3A6969"],"infoHash":"176b065b57fa3672c97ad6dfe2a316a85fa12daf","infoHashBuffer":{"type":"Buffer","data":[23,107,6,91,87,250,54,114,201,122,214,223,226,163,22,168,95,161,45,175]},"announce":[],"urlList":[]}}